<svg id="Warstwa_1" data-name="Warstwa 1" xmlns="http://www.w3.org/2000/svg" width="6.09mm" height="8.6mm" viewBox="0 0 17.27 24.39">
  <defs>
    <style>
      .cls-1 {
        fill: #fff;
      }
    </style>
  </defs>
  <path class="cls-1" d="M296.41,429.11v6.54a1.68,1.68,0,0,1-.43,1.12,1.9,1.9,0,0,1-.41.34l-3.46,2v3.11h-1.76V439a1.68,1.68,0,0,1,.43-1.12,1.36,1.36,0,0,1,.41-.34l3.45-2v-6.35l-5.07-2.93a1,1,0,0,0-1,0l-5.08,2.93v6.35l3.45,2a1.53,1.53,0,0,1,.42.34,1.68,1.68,0,0,1,.43,1.12v3.25H286V439.1l-3.45-2a1.74,1.74,0,0,1-.42-.34,1.68,1.68,0,0,1-.43-1.12v-6.54a1.7,1.7,0,0,1,.85-1.46l5.11-3a2.83,2.83,0,0,1,2.79,0l5.12,3A1.69,1.69,0,0,1,296.41,429.11Z" transform="translate(-280.37 -417.82)"/>
  <path class="cls-1" d="M293.26,433.58v-2.41a1.9,1.9,0,0,0-.95-1.64l-2.08-1.21a2,2,0,0,0-1.9,0l-2.09,1.21a1.9,1.9,0,0,0-.95,1.64v2.41a1.9,1.9,0,0,0,.95,1.65l2.09,1.2a1.89,1.89,0,0,0,.95.26,1.91,1.91,0,0,0,1-.26l2.08-1.2A1.9,1.9,0,0,0,293.26,433.58Zm-1.76,0a.15.15,0,0,1-.07.12l-2.09,1.2a.11.11,0,0,1-.13,0l-2.09-1.2a.14.14,0,0,1-.06-.12v-2.41a.13.13,0,0,1,.06-.11l2.09-1.21h.13l2.09,1.21a.14.14,0,0,1,.07.11Z" transform="translate(-280.37 -417.82)"/>
  <path class="cls-1" d="M280.41,439.69a.08.08,0,0,1,.07,0l2.09,1.2a.13.13,0,0,1,.06.11v1.18h1.77V441a1.92,1.92,0,0,0-.95-1.64l-2.09-1.2a1.93,1.93,0,0,0-1-.26v1.78Z" transform="translate(-280.37 -417.82)"/>
  <path class="cls-1" d="M295.48,441a.14.14,0,0,1,.07-.11l2.08-1.2h0v-1.78a1.91,1.91,0,0,0-.89.26l-2.09,1.2a1.92,1.92,0,0,0-1,1.64v1.18h1.77Z" transform="translate(-280.37 -417.82)"/>
  <path class="cls-1" d="M281.26,425.77l5.66-3.28a1.7,1.7,0,0,0,.85-1.46v-3.21H286V421l-5.59,3.22,0,0V426h0A1.71,1.71,0,0,0,281.26,425.77Z" transform="translate(-280.37 -417.82)"/>
  <path class="cls-1" d="M282.63,419a.13.13,0,0,1-.06.11l-2.09,1.21a.14.14,0,0,1-.11,0v1.77h0a1.88,1.88,0,0,0,.95-.25l2.09-1.21a1.92,1.92,0,0,0,.95-1.64v-1.15h-1.77Z" transform="translate(-280.37 -417.82)"/>
  <path class="cls-1" d="M291.19,422.49l5.67,3.28a1.79,1.79,0,0,0,.78.22v-1.81L292.11,421v-3.17h-1.76V421A1.69,1.69,0,0,0,291.19,422.49Z" transform="translate(-280.37 -417.82)"/>
  <path class="cls-1" d="M297.63,420.29l-2.08-1.21a.14.14,0,0,1-.07-.11v-1.15h-1.77V419a1.92,1.92,0,0,0,1,1.64l2.09,1.21a1.9,1.9,0,0,0,.89.25v-1.78Z" transform="translate(-280.37 -417.82)"/>
</svg>
